<svg width="131" height="30" viewBox="0 0 131 30" fill="none" xmlns="http://www.w3.org/2000/svg">
<path d="M6.32 22.14C5.29333 22.14 4.37333 21.9733 3.56 21.64C2.74667 21.3067 2.09333 20.8133 1.6 20.16C1.12 19.5067 0.866667 18.72 0.84 17.8H4.48C4.53333 18.32 4.71333 18.72 5.02 19C5.32667 19.2667 5.72667 19.4 6.22 19.4C6.72667 19.4 7.12667 19.2867 7.42 19.06C7.71333 18.82 7.86 18.4933 7.86 18.08C7.86 17.7333 7.74 17.4467 7.5 17.22C7.27333 16.9933 6.98667 16.8067 6.64 16.66C6.30667 16.5133 5.82667 16.3467 5.2 16.16C4.29333 15.88 3.55333 15.6 2.98 15.32C2.40667 15.04 1.91333 14.6267 1.5 14.08C1.08667 13.5333 0.88 12.82 0.88 11.94C0.88 10.6333 1.35333 9.61333 2.3 8.88C3.24667 8.13333 4.48 7.76 6 7.76C7.54667 7.76 8.79333 8.13333 9.74 8.88C10.6867 9.61333 11.1933 10.64 11.26 11.96H7.56C7.53333 11.5067 7.36667 11.1533 7.06 10.9C6.75333 10.6333 6.36 10.5 5.88 10.5C5.46667 10.5 5.13333 10.6133 4.88 10.84C4.62667 11.0533 4.5 11.3667 4.5 11.78C4.5 12.2333 4.71333 12.5867 5.14 12.84C5.56667 13.0933 6.23333 13.3667 7.14 13.66C8.04667 13.9667 8.78 14.26 9.34 14.54C9.91333 14.82 10.4067 15.2267 10.82 15.76C11.2333 16.2933 11.44 16.98 11.44 17.82C11.44 18.62 11.2333 19.3467 10.82 20C10.42 20.6533 9.83333 21.1733 9.06 21.56C8.28667 21.9467 7.37333 22.14 6.32 22.14ZM24.5647 10.84V22H21.1447V20.48C20.798 20.9733 20.3247 21.3733 19.7247 21.68C19.138 21.9733 18.4847 22.12 17.7647 22.12C16.9114 22.12 16.158 21.9333 15.5047 21.56C14.8514 21.1733 14.3447 20.62 13.9847 19.9C13.6247 19.18 13.4447 18.3333 13.4447 17.36V10.84H16.8447V16.9C16.8447 17.6467 17.038 18.2267 17.4247 18.64C17.8114 19.0533 18.3314 19.26 18.9847 19.26C19.6514 19.26 20.178 19.0533 20.5647 18.64C20.9514 18.2267 21.1447 17.6467 21.1447 16.9V10.84H24.5647ZM33.8213 10.72C35.1279 10.72 36.1679 11.1467 36.9413 12C37.7279 12.84 38.1213 14 38.1213 15.48V22H34.7213V15.94C34.7213 15.1933 34.5279 14.6133 34.1413 14.2C33.7546 13.7867 33.2346 13.58 32.5813 13.58C31.9279 13.58 31.4079 13.7867 31.0213 14.2C30.6346 14.6133 30.4413 15.1933 30.4413 15.94V22H27.0213V10.84H30.4413V12.32C30.7879 11.8267 31.2546 11.44 31.8413 11.16C32.4279 10.8667 33.0879 10.72 33.8213 10.72ZM43.9178 7.96V22H40.4978V7.96H43.9178ZM60.6363 10.72C62.0229 10.72 63.1229 11.14 63.9363 11.98C64.7629 12.82 65.1763 13.9867 65.1763 15.48V22H61.7763V15.94C61.7763 15.22 61.5829 14.6667 61.1963 14.28C60.8229 13.88 60.3029 13.68 59.6363 13.68C58.9696 13.68 58.4429 13.88 58.0563 14.28C57.6829 14.6667 57.4963 15.22 57.4963 15.94V22H54.0963V15.94C54.0963 15.22 53.9029 14.6667 53.5163 14.28C53.1429 13.88 52.6229 13.68 51.9563 13.68C51.2896 13.68 50.7629 13.88 50.3763 14.28C50.0029 14.6667 49.8163 15.22 49.8163 15.94V22H46.3963V10.84H49.8163V12.24C50.1629 11.7733 50.6163 11.4067 51.1763 11.14C51.7363 10.86 52.3696 10.72 53.0763 10.72C53.9163 10.72 54.6629 10.9 55.3163 11.26C55.9829 11.62 56.5029 12.1333 56.8763 12.8C57.2629 12.1867 57.7896 11.6867 58.4563 11.3C59.1229 10.9133 59.8496 10.72 60.6363 10.72ZM72.6481 22.16C71.5548 22.16 70.5681 21.9267 69.6881 21.46C68.8215 20.9933 68.1348 20.3267 67.6281 19.46C67.1348 18.5933 66.8881 17.58 66.8881 16.42C66.8881 15.2733 67.1415 14.2667 67.6481 13.4C68.1548 12.52 68.8481 11.8467 69.7281 11.38C70.6081 10.9133 71.5948 10.68 72.6881 10.68C73.7815 10.68 74.7681 10.9133 75.6481 11.38C76.5281 11.8467 77.2215 12.52 77.7281 13.4C78.2348 14.2667 78.4881 15.2733 78.4881 16.42C78.4881 17.5667 78.2281 18.58 77.7081 19.46C77.2015 20.3267 76.5015 20.9933 75.6081 21.46C74.7281 21.9267 73.7415 22.16 72.6481 22.16ZM72.6481 19.2C73.3015 19.2 73.8548 18.96 74.3081 18.48C74.7748 18 75.0081 17.3133 75.0081 16.42C75.0081 15.5267 74.7815 14.84 74.3281 14.36C73.8881 13.88 73.3415 13.64 72.6881 13.64C72.0215 13.64 71.4681 13.88 71.0281 14.36C70.5881 14.8267 70.3681 15.5133 70.3681 16.42C70.3681 17.3133 70.5815 18 71.0081 18.48C71.4481 18.96 71.9948 19.2 72.6481 19.2ZM85.3225 18.8L87.7425 10.84H91.3825L87.4225 22H83.2025L79.2425 10.84H82.9025L85.3225 18.8ZM103.342 16.24C103.342 16.56 103.322 16.8933 103.282 17.24H95.542C95.5954 17.9333 95.8154 18.4667 96.202 18.84C96.602 19.2 97.0887 19.38 97.662 19.38C98.5154 19.38 99.1087 19.02 99.442 18.3H103.082C102.895 19.0333 102.555 19.6933 102.062 20.28C101.582 20.8667 100.975 21.3267 100.242 21.66C99.5087 21.9933 98.6887 22.16 97.782 22.16C96.6887 22.16 95.7154 21.9267 94.862 21.46C94.0087 20.9933 93.342 20.3267 92.862 19.46C92.382 18.5933 92.142 17.58 92.142 16.42C92.142 15.26 92.3754 14.2467 92.842 13.38C93.322 12.5133 93.9887 11.8467 94.842 11.38C95.6954 10.9133 96.6754 10.68 97.782 10.68C98.862 10.68 99.822 10.9067 100.662 11.36C101.502 11.8133 102.155 12.46 102.622 13.3C103.102 14.14 103.342 15.12 103.342 16.24ZM99.842 15.34C99.842 14.7533 99.642 14.2867 99.242 13.94C98.842 13.5933 98.342 13.42 97.742 13.42C97.1687 13.42 96.682 13.5867 96.282 13.92C95.8954 14.2533 95.6554 14.7267 95.562 15.34H99.842ZM106.866 9.68C106.266 9.68 105.773 9.50667 105.386 9.16C105.013 8.8 104.826 8.36 104.826 7.84C104.826 7.30667 105.013 6.86667 105.386 6.52C105.773 6.16 106.266 5.98 106.866 5.98C107.453 5.98 107.933 6.16 108.306 6.52C108.693 6.86667 108.886 7.30667 108.886 7.84C108.886 8.36 108.693 8.8 108.306 9.16C107.933 9.50667 107.453 9.68 106.866 9.68ZM108.566 10.84V22H105.146V10.84H108.566ZM115.585 22.16C114.611 22.16 113.745 21.9933 112.985 21.66C112.225 21.3267 111.625 20.8733 111.185 20.3C110.745 19.7133 110.498 19.06 110.445 18.34H113.825C113.865 18.7267 114.045 19.04 114.365 19.28C114.685 19.52 115.078 19.64 115.545 19.64C115.971 19.64 116.298 19.56 116.525 19.4C116.765 19.2267 116.885 19.0067 116.885 18.74C116.885 18.42 116.718 18.1867 116.385 18.04C116.051 17.88 115.511 17.7067 114.765 17.52C113.965 17.3333 113.298 17.14 112.765 16.94C112.231 16.7267 111.771 16.4 111.385 15.96C110.998 15.5067 110.805 14.9 110.805 14.14C110.805 13.5 110.978 12.92 111.325 12.4C111.685 11.8667 112.205 11.4467 112.885 11.14C113.578 10.8333 114.398 10.68 115.345 10.68C116.745 10.68 117.845 11.0267 118.645 11.72C119.458 12.4133 119.925 13.3333 120.045 14.48H116.885C116.831 14.0933 116.658 13.7867 116.365 13.56C116.085 13.3333 115.711 13.22 115.245 13.22C114.845 13.22 114.538 13.3 114.325 13.46C114.111 13.6067 114.005 13.8133 114.005 14.08C114.005 14.4 114.171 14.64 114.505 14.8C114.851 14.96 115.385 15.12 116.105 15.28C116.931 15.4933 117.605 15.7067 118.125 15.92C118.645 16.12 119.098 16.4533 119.485 16.92C119.885 17.3733 120.091 17.9867 120.105 18.76C120.105 19.4133 119.918 20 119.545 20.52C119.185 21.0267 118.658 21.4267 117.965 21.72C117.285 22.0133 116.491 22.16 115.585 22.16Z" fill="black"/>
<ellipse cx="126.938" cy="18" rx="4.06202" ry="4" fill="#0891B2"/>
</svg>
