<svg width="406" height="120" viewBox="0 0 406 120" fill="none" xmlns="http://www.w3.org/2000/svg">
<path d="M51.9794 78.08H31.0194L27.6594 88H13.3394L33.6594 31.84H49.4995L69.8195 88H55.3394L51.9794 78.08ZM48.4594 67.52L41.4995 46.96L34.6194 67.52H48.4594ZM89.6838 28.8V88H76.0038V28.8H89.6838ZM143.678 43.36V88H129.998V81.92C128.611 83.8933 126.718 85.4933 124.318 86.72C121.971 87.8933 119.358 88.48 116.478 88.48C113.064 88.48 110.051 87.7333 107.438 86.24C104.824 84.6933 102.798 82.48 101.358 79.6C99.9176 76.72 99.1976 73.3333 99.1976 69.44V43.36H112.798V67.6C112.798 70.5867 113.571 72.9067 115.118 74.56C116.664 76.2133 118.744 77.04 121.358 77.04C124.024 77.04 126.131 76.2133 127.678 74.56C129.224 72.9067 129.998 70.5867 129.998 67.6V43.36H143.678ZM170.464 42.72C173.61 42.72 176.357 43.36 178.704 44.64C181.104 45.92 182.944 47.6 184.224 49.68V43.36H197.904V87.92C197.904 92.0267 197.077 95.7333 195.424 99.04C193.824 102.4 191.344 105.067 187.984 107.04C184.677 109.013 180.544 110 175.584 110C168.97 110 163.61 108.427 159.504 105.28C155.397 102.187 153.05 97.9733 152.464 92.64H165.984C166.41 94.3467 167.424 95.68 169.024 96.64C170.624 97.6533 172.597 98.16 174.944 98.16C177.77 98.16 180.01 97.3333 181.664 95.68C183.37 94.08 184.224 91.4933 184.224 87.92V81.6C182.89 83.68 181.05 85.3867 178.704 86.72C176.357 88 173.61 88.64 170.464 88.64C166.784 88.64 163.45 87.7067 160.464 85.84C157.477 83.92 155.104 81.2267 153.344 77.76C151.637 74.24 150.784 70.1867 150.784 65.6C150.784 61.0133 151.637 56.9867 153.344 53.52C155.104 50.0533 157.477 47.3867 160.464 45.52C163.45 43.6533 166.784 42.72 170.464 42.72ZM184.224 65.68C184.224 62.2667 183.264 59.5733 181.344 57.6C179.477 55.6267 177.184 54.64 174.464 54.64C171.744 54.64 169.424 55.6267 167.504 57.6C165.637 59.52 164.704 62.1867 164.704 65.6C164.704 69.0133 165.637 71.7333 167.504 73.76C169.424 75.7333 171.744 76.72 174.464 76.72C177.184 76.72 179.477 75.7333 181.344 73.76C183.264 71.7867 184.224 69.0933 184.224 65.68ZM205.081 65.6C205.081 61.0133 205.934 56.9867 207.641 53.52C209.401 50.0533 211.774 47.3867 214.761 45.52C217.747 43.6533 221.081 42.72 224.761 42.72C227.907 42.72 230.654 43.36 233.001 44.64C235.401 45.92 237.241 47.6 238.521 49.68V43.36H252.201V88H238.521V81.68C237.187 83.76 235.321 85.44 232.921 86.72C230.574 88 227.827 88.64 224.681 88.64C221.054 88.64 217.747 87.7067 214.761 85.84C211.774 83.92 209.401 81.2267 207.641 77.76C205.934 74.24 205.081 70.1867 205.081 65.6ZM238.521 65.68C238.521 62.2667 237.561 59.5733 235.641 57.6C233.774 55.6267 231.481 54.64 228.761 54.64C226.041 54.64 223.721 55.6267 221.801 57.6C219.934 59.52 219.001 62.1867 219.001 65.6C219.001 69.0133 219.934 71.7333 221.801 73.76C223.721 75.7333 226.041 76.72 228.761 76.72C231.481 76.72 233.774 75.7333 235.641 73.76C237.561 71.7867 238.521 69.0933 238.521 65.68ZM296.098 59.2C299.351 59.8933 301.964 61.52 303.938 64.08C305.911 66.5867 306.898 69.4667 306.898 72.72C306.898 77.4133 305.244 81.1467 301.938 83.92C298.684 86.64 294.124 88 288.258 88H262.098V31.84H287.378C293.084 31.84 297.538 33.1467 300.738 35.76C303.991 38.3733 305.618 41.92 305.618 46.4C305.618 49.7067 304.738 52.4533 302.978 54.64C301.271 56.8267 298.978 58.3467 296.098 59.2ZM275.778 54.56H284.738C286.978 54.56 288.684 54.08 289.858 53.12C291.084 52.1067 291.698 50.64 291.698 48.72C291.698 46.8 291.084 45.3333 289.858 44.32C288.684 43.3067 286.978 42.8 284.738 42.8H275.778V54.56ZM285.858 76.96C288.151 76.96 289.911 76.4533 291.138 75.44C292.418 74.3733 293.058 72.8533 293.058 70.88C293.058 68.9067 292.391 67.36 291.058 66.24C289.778 65.12 287.991 64.56 285.698 64.56H275.778V76.96H285.858ZM312.112 65.6C312.112 61.0133 312.965 56.9867 314.672 53.52C316.432 50.0533 318.805 47.3867 321.792 45.52C324.779 43.6533 328.112 42.72 331.792 42.72C334.939 42.72 337.685 43.36 340.032 44.64C342.432 45.92 344.272 47.6 345.552 49.68V43.36H359.232V88H345.552V81.68C344.219 83.76 342.352 85.44 339.952 86.72C337.605 88 334.859 88.64 331.712 88.64C328.085 88.64 324.779 87.7067 321.792 85.84C318.805 83.92 316.432 81.2267 314.672 77.76C312.965 74.24 312.112 70.1867 312.112 65.6ZM345.552 65.68C345.552 62.2667 344.592 59.5733 342.672 57.6C340.805 55.6267 338.512 54.64 335.792 54.64C333.072 54.64 330.752 55.6267 328.832 57.6C326.965 59.52 326.032 62.1867 326.032 65.6C326.032 69.0133 326.965 71.7333 328.832 73.76C330.752 75.7333 333.072 76.72 335.792 76.72C338.512 76.72 340.805 75.7333 342.672 73.76C344.592 71.7867 345.552 69.0933 345.552 65.68Z" fill="#171717"/>
<path d="M391 76C391 82.6274 385.627 88 379 88C372.373 88 367 82.6274 367 76C367 69.3726 372.373 64 379 64C385.627 64 391 69.3726 391 76Z" fill="#155E75"/>
</svg>
